# xmcd
#
# Track frame offsets:
#	150
#	20570
#	36282
#	59797
#
# Disc length: 1107 seconds
#
# Revision: 1
# Processed by: cddbd v1.5.1PL0 Copyright (c) Steve Scherf et al.
# Submitted via: CDex 1.50Beta5
#
DISCID=35045104
DTITLE=BETCHIN’ - One love makes me Sad
DYEAR=1999
DGENRE=Rock
TTITLE0=One love makes me Sad
TTITLE1=Baby Sick
TTITLE2=One love makes me Sad
TTITLE3=Baby Sick
EXTD=
EXTT0=
EXTT1=
EXTT2=
EXTT3=
PLAYORDER=
